<svg xmlns="http://www.w3.org/2000/svg" width="735" height="735" viewBox="0 0 735 735" version="1.1"><path d="M 201.710 120.986 L 151.920 121.500 151.473 201 C 150.411 389.604, 150.078 622.604, 150.867 623.836 C 151.572 624.935, 166.704 625.150, 236.112 625.049 C 316.031 624.934, 321.016 624.822, 330.249 622.945 C 359.821 616.932, 386.238 602.758, 407.498 581.498 C 428.739 560.257, 442.584 534.495, 449.148 504 C 451.035 495.234, 451.415 490.363, 451.448 474.500 C 451.491 453.422, 449.749 442.090, 443.850 425.089 C 440.012 414.024, 429.930 393.914, 425.005 387.500 C 418.029 378.414, 417.821 375.932, 423.468 369.221 C 432.142 358.912, 444.044 336.951, 449.042 322.035 C 455.137 303.843, 456.385 295.535, 456.408 273 C 456.433 249.861, 455.034 240.910, 448.430 221.937 C 433.224 178.251, 398.866 143.403, 356 128.185 C 351.325 126.526, 345.988 124.398, 344.140 123.456 C 337.375 120.009, 322.075 119.743, 201.710 120.986 M 155.493 125.250 C 155.249 125.938, 154.649 237.425, 154.160 373 C 153.517 551.442, 153.574 619.881, 154.367 620.882 C 155.293 622.048, 168.702 622.149, 240.482 621.530 L 325.500 620.797 336.511 618.027 C 392.700 603.895, 435.198 558.878, 446.662 501.346 C 449.159 488.818, 449.160 459.904, 446.664 447.536 C 442.638 427.582, 432.629 403.223, 424.051 392.500 C 416.831 383.476, 416.571 382.953, 416.571 377.471 C 416.571 371.832, 417.642 369.840, 426.466 359.048 C 431.967 352.321, 441.767 333.481, 445.899 321.688 C 451.862 304.674, 453.411 294.660, 453.431 273 C 453.450 251.472, 452.279 243.156, 446.918 226.748 C 439.275 203.361, 427.481 184.324, 409.571 166.464 C 388.499 145.452, 366.893 133.110, 339.500 126.438 L 329.500 124.003 242.719 124.001 C 174.196 124, 155.844 124.263, 155.493 125.250 M 509.303 172.233 C 508.690 173.035, 508.238 232.462, 508.071 334.250 C 507.822 486.051, 507.903 495, 509.536 495 C 511.247 495, 556.485 474.628, 558.592 472.908 C 559.367 472.276, 559.894 428.908, 560.407 323.759 C 560.805 242.216, 561.213 174.600, 561.315 173.500 C 561.495 171.553, 560.815 171.493, 535.886 171.233 C 516.138 171.028, 510.051 171.257, 509.303 172.233 M 513.321 175.230 C 512.187 176.983, 511.688 488.088, 512.817 489.217 C 513.728 490.128, 552.471 472.982, 554.651 470.703 C 555.505 469.810, 555.892 431.461, 556.151 322 L 556.500 174.500 535.321 174.230 C 519.061 174.023, 513.952 174.255, 513.321 175.230 M 252 272.381 L 252 322.762 281.750 323.436 C 311.476 324.110, 311.505 324.109, 318.211 321.701 C 336.963 314.968, 349.114 301.767, 353.032 283.872 C 354.739 276.073, 353.822 262.911, 351.073 255.764 C 345.745 241.910, 334.432 230.507, 321.500 225.952 C 318.200 224.790, 314.719 223.425, 313.764 222.920 C 312.809 222.414, 298.521 222, 282.014 222 L 252 222 252 272.381 M 255 272.343 L 255 319.871 279.750 320.186 C 293.363 320.359, 307.384 320.171, 310.910 319.769 C 328.436 317.772, 344.062 303.526, 349.540 284.552 C 351.755 276.880, 351.091 264.832, 348.005 256.676 C 343.224 244.041, 331.522 232.889, 317.888 227.974 C 311.924 225.823, 309.626 225.642, 283.250 225.243 L 255 224.815 255 272.343 M 253.011 422 C 252.575 422.275, 252.057 445.225, 251.859 473 L 251.500 523.500 277.785 523.767 C 301.187 524.004, 304.940 523.817, 312.013 522.056 C 324.012 519.070, 330.627 515.524, 338.089 508.076 C 365.758 480.460, 353.183 434.562, 314.948 423.610 C 310.725 422.401, 303.237 421.988, 281.652 421.775 C 266.335 421.624, 253.447 421.725, 253.011 422 M 254.607 471.885 C 254.216 497.811, 254.171 519.468, 254.507 520.012 C 254.881 520.617, 264.173 521, 278.494 521 C 308.152 521, 318.012 519.234, 328.389 512.064 C 343.684 501.496, 351.950 483.304, 349.284 466.078 C 346.505 448.123, 333.932 433.321, 316.748 427.771 C 311.301 426.013, 306.962 425.689, 282.909 425.250 L 255.319 424.746 254.607 471.885 M 523.341 524.058 C 503.186 527.572, 486.651 542.602, 481.453 562.131 C 479.548 569.286, 479.618 582.335, 481.595 589.068 C 484.098 597.590, 488.919 605.759, 495.080 611.920 C 518.122 634.962, 557.597 631.222, 575.215 604.329 C 581.882 594.153, 583.215 590.022, 583.767 577.840 C 584.171 568.910, 583.906 566.050, 582.135 560.220 C 578.544 548.397, 569.280 536.738, 558.500 530.474 C 549.004 524.957, 533.945 522.209, 523.341 524.058 M 522.510 528.175 C 510.966 530.377, 497.735 539.504, 491.101 549.843 C 478.551 569.401, 482.277 595.513, 499.848 611.140 C 502.407 613.416, 507.875 616.902, 512 618.889 C 519.385 622.445, 519.692 622.500, 532 622.500 C 544.058 622.500, 544.746 622.384, 551.443 619.212 C 571.960 609.497, 583.328 589.327, 580.025 568.500 C 578.350 557.937, 574.179 549.972, 566.082 541.875 C 553.966 529.760, 538.954 525.039, 522.510 528.175" stroke="none" fill="#000000" fill-rule="evenodd"/><path d="M 255.422 247 C 255.422 258.275, 255.568 262.887, 255.746 257.250 C 255.924 251.613, 255.924 242.387, 255.746 236.750 C 255.568 231.113, 255.422 235.725, 255.422 247 M 255.405 296.500 C 255.406 305.300, 255.559 308.766, 255.745 304.203 C 255.930 299.639, 255.929 292.439, 255.742 288.203 C 255.555 283.966, 255.404 287.700, 255.405 296.500 M 266.304 319.747 C 272.247 319.924, 281.697 319.923, 287.304 319.745 C 292.912 319.567, 288.050 319.422, 276.500 319.423 C 264.950 319.424, 260.362 319.570, 266.304 319.747 M 255.422 462 C 255.422 473.275, 255.568 477.887, 255.746 472.250 C 255.924 466.613, 255.924 457.387, 255.746 451.750 C 255.568 446.113, 255.422 450.725, 255.422 462 M 522.510 529.175 C 511.079 531.355, 498.466 539.924, 492.110 549.828 C 481.996 565.590, 482.221 585.947, 492.682 601.708 C 497.427 608.856, 503.003 613.523, 512 617.873 C 519.394 621.449, 519.676 621.500, 532 621.500 C 544.023 621.500, 544.761 621.376, 551.347 618.257 C 560.195 614.067, 565.292 609.967, 570.571 602.796 C 577.799 592.977, 580.907 580.369, 579.025 568.500 C 575.869 548.599, 560.407 532.765, 540.542 529.092 C 533.702 527.828, 529.473 527.847, 522.510 529.175" stroke="none" fill="#d25656" fill-rule="evenodd"/><path d="M 177.250 120.749 C 190.863 120.906, 213.137 120.906, 226.750 120.749 C 240.363 120.592, 229.225 120.463, 202 120.463 C 174.775 120.463, 163.637 120.592, 177.250 120.749 M 325.264 120.718 C 326.784 120.947, 329.034 120.941, 330.264 120.704 C 331.494 120.467, 330.250 120.279, 327.500 120.286 C 324.750 120.294, 323.744 120.488, 325.264 120.718 M 155.493 125.250 C 155.249 125.938, 154.649 237.425, 154.160 373 C 153.517 551.442, 153.574 619.881, 154.367 620.882 C 155.293 622.048, 168.702 622.149, 240.482 621.530 L 325.500 620.797 336.511 618.027 C 392.700 603.895, 435.198 558.878, 446.662 501.346 C 449.159 488.818, 449.160 459.904, 446.664 447.536 C 442.638 427.582, 432.629 403.223, 424.051 392.500 C 416.831 383.476, 416.571 382.953, 416.571 377.471 C 416.571 371.832, 417.642 369.840, 426.466 359.048 C 431.967 352.321, 441.767 333.481, 445.899 321.688 C 451.862 304.674, 453.411 294.660, 453.431 273 C 453.450 251.472, 452.279 243.156, 446.918 226.748 C 439.275 203.361, 427.481 184.324, 409.571 166.464 C 388.499 145.452, 366.893 133.110, 339.500 126.438 L 329.500 124.003 242.719 124.001 C 174.196 124, 155.844 124.263, 155.493 125.250 M 151.436 150.500 C 151.436 164.800, 151.577 170.511, 151.748 163.191 C 151.919 155.871, 151.918 144.171, 151.747 137.191 C 151.575 130.211, 151.435 136.200, 151.436 150.500 M 412 163.500 C 414.987 166.525, 417.657 169, 417.932 169 C 418.207 169, 415.987 166.525, 413 163.500 C 410.013 160.475, 407.343 158, 407.068 158 C 406.793 158, 409.013 160.475, 412 163.500 M 523.308 170.748 C 530.353 170.920, 541.603 170.919, 548.308 170.747 C 555.014 170.574, 549.250 170.433, 535.500 170.434 C 521.750 170.434, 516.264 170.576, 523.308 170.748 M 508.419 193 C 508.419 203.725, 508.566 208.113, 508.746 202.750 C 508.925 197.387, 508.925 188.613, 508.746 183.250 C 508.566 177.887, 508.419 182.275, 508.419 193 M 513.321 175.230 C 512.187 176.983, 511.688 488.088, 512.817 489.217 C 513.728 490.128, 552.471 472.982, 554.651 470.703 C 555.505 469.810, 555.892 431.461, 556.151 322 L 556.500 174.500 535.321 174.230 C 519.061 174.023, 513.952 174.255, 513.321 175.230 M 440.705 203.472 C 442.182 206.482, 443.557 208.776, 443.762 208.571 C 444.211 208.122, 439.167 198, 438.494 198 C 438.234 198, 439.229 200.462, 440.705 203.472 M 448.157 220.500 C 448.154 221.050, 448.759 223.075, 449.500 225 C 450.241 226.925, 450.862 227.825, 450.879 227 C 450.896 226.175, 450.292 224.150, 449.536 222.500 C 448.781 220.850, 448.160 219.950, 448.157 220.500 M 252 272.381 L 252 322.762 281.750 323.436 C 311.476 324.110, 311.505 324.109, 318.211 321.701 C 336.963 314.968, 349.114 301.767, 353.032 283.872 C 354.739 276.073, 353.822 262.911, 351.073 255.764 C 345.745 241.910, 334.432 230.507, 321.500 225.952 C 318.200 224.790, 314.719 223.425, 313.764 222.920 C 312.809 222.414, 298.521 222, 282.014 222 L 252 222 252 272.381 M 254.999 225.750 C 254.998 226.162, 262.535 226.384, 271.749 226.243 C 303.472 225.755, 306.436 225.415, 280.750 225.208 C 266.587 225.093, 254.999 225.338, 254.999 225.750 M 324.736 231.923 C 336.423 238.367, 343.403 246.512, 347.745 258.772 C 349.142 262.715, 349.892 264.051, 349.557 262 C 348.588 256.063, 343.088 246.180, 337.658 240.618 C 332.920 235.765, 322.915 229.006, 320.500 229.027 C 319.950 229.032, 321.856 230.335, 324.736 231.923 M 150.484 371.500 C 150.484 437.500, 150.604 464.647, 150.750 431.827 C 150.896 399.007, 150.896 345.007, 150.750 311.827 C 150.604 278.647, 150.484 305.500, 150.484 371.500 M 457.378 273 C 457.378 279.325, 457.541 281.913, 457.739 278.750 C 457.937 275.587, 457.937 270.413, 457.739 267.250 C 457.541 264.087, 457.378 266.675, 457.378 273 M 350.343 273.500 C 350.346 277.900, 350.522 279.576, 350.733 277.224 C 350.945 274.872, 350.942 271.272, 350.727 269.224 C 350.512 267.176, 350.339 269.100, 350.343 273.500 M 255.336 274 C 255.336 278.125, 255.513 279.813, 255.728 277.750 C 255.944 275.688, 255.944 272.313, 255.728 270.250 C 255.513 268.188, 255.336 269.875, 255.336 274 M 560.448 328 C 560.448 346.425, 560.583 353.962, 560.748 344.750 C 560.913 335.538, 560.913 320.462, 560.748 311.250 C 560.583 302.038, 560.448 309.575, 560.448 328 M 342.880 298.224 C 342.226 299.447, 339.413 302.934, 336.629 305.974 L 331.568 311.500 336.569 306.750 C 341.085 302.460, 345.906 296, 344.592 296 C 344.305 296, 343.535 297.001, 342.880 298.224 M 255.272 316 C 255.272 318.475, 255.467 319.488, 255.706 318.250 C 255.944 317.012, 255.944 314.988, 255.706 313.750 C 255.467 312.512, 255.272 313.525, 255.272 316 M 442.679 337.546 C 440.330 342.473, 440.661 343.311, 443.116 338.656 C 444.232 336.541, 444.968 334.634, 444.752 334.418 C 444.535 334.202, 443.603 335.610, 442.679 337.546 M 253.011 422 C 252.575 422.275, 252.057 445.225, 251.859 473 L 251.500 523.500 277.785 523.767 C 301.187 524.004, 304.940 523.817, 312.013 522.056 C 324.012 519.070, 330.627 515.524, 338.089 508.076 C 365.758 480.460, 353.183 434.562, 314.948 423.610 C 310.725 422.401, 303.237 421.988, 281.652 421.775 C 266.335 421.624, 253.447 421.725, 253.011 422 M 255.204 433.750 L 255.407 442.500 255.744 434.269 L 256.080 426.037 278.790 425.749 L 301.500 425.461 278.250 425.230 L 255 425 255.204 433.750 M 325.559 432.511 C 332.934 436.869, 340.177 444.474, 343.995 451.866 C 345.595 454.965, 346.925 457.148, 346.952 456.717 C 347.069 454.802, 341.827 446.068, 337.862 441.572 C 333.764 436.925, 322.917 429, 320.654 429 C 320.084 429, 322.291 430.580, 325.559 432.511 M 507.235 463.781 C 507.028 491.300, 507.187 495.135, 508.555 495.660 C 509.411 495.988, 511.098 495.774, 512.305 495.184 C 514.215 494.251, 514.080 494.185, 511.264 494.678 L 508.029 495.244 507.750 463.872 L 507.470 432.500 507.235 463.781 M 452.360 474 C 452.360 479.225, 452.529 481.363, 452.735 478.750 C 452.941 476.137, 452.941 471.863, 452.735 469.250 C 452.529 466.637, 452.360 468.775, 452.360 474 M 349.320 473 C 349.320 476.575, 349.502 478.038, 349.723 476.250 C 349.945 474.462, 349.945 471.538, 349.723 469.750 C 349.502 467.962, 349.320 469.425, 349.320 473 M 546 479 C 544.075 480.054, 542.950 480.916, 543.500 480.916 C 544.050 480.916, 546.075 480.054, 548 479 C 549.925 477.946, 551.050 477.084, 550.500 477.084 C 549.950 477.084, 547.925 477.946, 546 479 M 254.466 501 L 254.500 520.500 279.250 520.527 L 304.001 520.554 279.522 520.259 L 255.043 519.965 254.737 500.733 L 254.432 481.500 254.466 501 M 535 484 C 533.075 485.054, 531.950 485.916, 532.500 485.916 C 533.050 485.916, 535.075 485.054, 537 484 C 538.925 482.946, 540.050 482.084, 539.500 482.084 C 538.950 482.084, 536.925 482.946, 535 484 M 522 490 C 520.075 491.054, 518.950 491.916, 519.500 491.916 C 520.050 491.916, 522.075 491.054, 524 490 C 525.925 488.946, 527.050 488.084, 526.500 488.084 C 525.950 488.084, 523.925 488.946, 522 490 M 150.310 499.500 C 150.315 502.800, 150.502 504.029, 150.725 502.232 C 150.947 500.435, 150.943 497.735, 150.715 496.232 C 150.486 494.729, 150.304 496.200, 150.310 499.500 M 522.510 528.175 C 510.966 530.377, 497.735 539.504, 491.101 549.843 C 478.551 569.401, 482.277 595.513, 499.848 611.140 C 502.407 613.416, 507.875 616.902, 512 618.889 C 519.385 622.445, 519.692 622.500, 532 622.500 C 544.058 622.500, 544.746 622.384, 551.443 619.212 C 571.960 609.497, 583.328 589.327, 580.025 568.500 C 578.350 557.937, 574.179 549.972, 566.082 541.875 C 553.966 529.760, 538.954 525.039, 522.510 528.175 M 522.510 529.175 C 511.079 531.355, 498.466 539.924, 492.110 549.828 C 481.996 565.590, 482.221 585.947, 492.682 601.708 C 497.427 608.856, 503.003 613.523, 512 617.873 C 519.394 621.449, 519.676 621.500, 532 621.500 C 544.023 621.500, 544.761 621.376, 551.347 618.257 C 560.195 614.067, 565.292 609.967, 570.571 602.796 C 577.799 592.977, 580.907 580.369, 579.025 568.500 C 575.869 548.599, 560.407 532.765, 540.542 529.092 C 533.702 527.828, 529.473 527.847, 522.510 529.175 M 436.208 541.532 C 434.454 545.089, 433.233 548, 433.495 548 C 434.165 548, 440.211 535.878, 439.764 535.431 C 439.563 535.229, 437.962 537.975, 436.208 541.532 M 149.219 595.059 C 148.993 623.547, 149.448 627.156, 153.087 625.717 C 154.128 625.305, 154.039 625.137, 152.750 625.079 C 151.787 625.036, 150.905 624.888, 150.789 624.750 C 150.673 624.612, 150.322 611.675, 150.009 596 L 149.439 567.500 149.219 595.059 M 584.328 575.500 C 584.333 579.350, 584.513 580.802, 584.730 578.728 C 584.946 576.653, 584.943 573.503, 584.722 571.728 C 584.501 569.952, 584.324 571.650, 584.328 575.500 M 479.310 575.500 C 479.315 578.800, 479.502 580.029, 479.725 578.232 C 479.947 576.435, 479.943 573.735, 479.715 572.232 C 479.486 570.729, 479.304 572.200, 479.310 575.500 M 407.462 582.250 L 402.500 587.500 407.750 582.538 C 410.637 579.808, 413 577.446, 413 577.288 C 413 576.541, 412.074 577.372, 407.462 582.250 M 368 610 C 364.975 611.598, 362.852 612.927, 363.283 612.953 C 364.346 613.017, 374 608.090, 374 607.483 C 374 606.815, 374.139 606.757, 368 610 M 180.750 625.749 C 191.888 625.910, 210.113 625.910, 221.250 625.749 C 232.388 625.588, 223.275 625.456, 201 625.456 C 178.725 625.456, 169.613 625.588, 180.750 625.749 M 529.250 627.716 C 530.763 627.945, 533.237 627.945, 534.750 627.716 C 536.263 627.487, 535.025 627.300, 532 627.300 C 528.975 627.300, 527.737 627.487, 529.250 627.716" stroke="none" fill="#464646" fill-rule="evenodd"/><path d="M 0 367.501 L 0 735.003 367.750 734.751 L 735.500 734.500 735.751 367.250 L 736.003 0 368.001 0 L 0 0 0 367.501 M 0.495 368 C 0.495 570.125, 0.610 652.812, 0.750 551.750 C 0.890 450.687, 0.890 285.312, 0.750 184.250 C 0.610 83.187, 0.495 165.875, 0.495 368 M 152.260 120.796 C 150.674 121.832, 148.650 621.359, 150.220 624.365 C 151.163 626.171, 153.934 626.209, 237.847 625.564 C 317.214 624.954, 325.222 624.741, 333.083 623.030 C 377.612 613.338, 415.912 583.500, 436.448 542.500 C 460.148 495.184, 457.856 440.883, 430.202 394.500 C 428.235 391.200, 425.134 386.523, 423.312 384.106 C 419.360 378.863, 419.187 376.425, 422.447 371.898 C 435.120 354.298, 442.114 342.117, 447.363 328.500 C 469.498 271.082, 455.925 206.935, 412.456 163.529 C 396.893 147.989, 380.176 136.960, 361 129.580 C 355.775 127.569, 348.575 124.703, 345 123.212 L 338.500 120.500 246 120.243 C 195.125 120.101, 152.942 120.350, 152.260 120.796 M 509.787 171.250 C 508.340 172.383, 508.159 187.597, 507.846 333.986 C 507.534 479.585, 507.653 495.502, 509.058 495.772 C 510.569 496.064, 557.292 475.115, 559.025 473.369 C 560.294 472.091, 561.763 171.684, 560.505 170.765 C 559.952 170.361, 548.674 170.024, 535.441 170.015 C 517.692 170.004, 510.964 170.328, 509.787 171.250 M 256 272.255 L 256 318.740 281.250 319.240 C 295.336 319.519, 308.932 319.318, 312 318.786 C 335.694 314.678, 353.313 289.968, 349.290 266.486 C 346.258 248.783, 334.327 234.898, 317 228.909 C 311.040 226.849, 308.234 226.625, 283.250 226.216 L 256 225.771 256 272.255 M 256 444.337 C 256 454.423, 255.703 475.573, 255.339 491.337 L 254.678 520 278.274 520 C 304.577 520, 312.113 518.984, 322.802 513.997 C 339.269 506.314, 350.634 485.977, 348.417 468.159 C 346.346 451.506, 337.399 438.766, 322.659 431.481 C 313.627 427.017, 305.435 426.042, 276.750 426.018 L 256 426 256 444.337 M 523 523.604 C 517.760 524.576, 508.303 528.402, 503.500 531.495 C 486.443 542.477, 477.019 562.788, 479.845 582.473 C 485.905 624.680, 537.003 642.315, 568.330 613.010 C 583.882 598.462, 588.884 576.168, 581.121 556 C 576.173 543.144, 563.011 530.637, 549.500 525.950 C 543.627 523.914, 528.535 522.577, 523 523.604" stroke="none" fill="#fbfbfb" fill-rule="evenodd"/></svg>